HIERARCHY
ROOT Hips
{
  OFFSET 0 0 0
  CHANNELS 6 Xposition Yposition Zposition Zrotation Yrotation Xrotation
  JOINT LeftThigh
  {
    OFFSET 8.409438 0 -5.917753
    CHANNELS 3 Zrotation Yrotation Xrotation
    JOINT LeftLeg
    {
      OFFSET 0 0 -42.358652
      CHANNELS 3 Zrotation Yrotation Xrotation
      JOINT LeftFoot
      {
        OFFSET 0 0 -39.357303
        CHANNELS 3 Zrotation Yrotation Xrotation
      }
    }
  }
  JOINT RightThigh
  {
    OFFSET -8.409438 0 -5.917753
    CHANNELS 3 Zrotation Yrotation Xrotation
    JOINT RightLeg
    {
      OFFSET 0 0 -42.358652
      CHANNELS 3 Zrotation Yrotation Xrotation
      JOINT RightFoot
      {
        OFFSET 0 0 -39.357303
        CHANNELS 3 Zrotation Yrotation Xrotation
      }
    }
  }
  JOINT SpineLow
  {
    OFFSET 0 0 4.719101
    CHANNELS 3 Zrotation Yrotation Xrotation
    JOINT SpineMid
    {
      OFFSET 0 0 12.899191
      CHANNELS 3 Zrotation Yrotation Xrotation
      JOINT Chest
      {
        OFFSET 0 0 12.899191
        CHANNELS 3 Zrotation Yrotation Xrotation
        JOINT LeftShoulder
        {
          OFFSET 7.550562 1.41573 9.438202
          CHANNELS 3 Zrotation Yrotation Xrotation
          JOINT LeftArm
          {
            OFFSET 9.155056 0 4.247191
            CHANNELS 3 Zrotation Yrotation Xrotation
            JOINT LeftForearm
            {
              OFFSET 0 0 25.771955
              CHANNELS 3 Zrotation Yrotation Xrotation
              JOINT LeftHand
              {
                OFFSET 0 0 25.197169
                CHANNELS 3 Zrotation Yrotation Xrotation
              }
            }
          }
        }
        JOINT RightShoulder
        {
          OFFSET -7.550562 1.41573 9.438202
          CHANNELS 3 Zrotation Yrotation Xrotation
          JOINT RightArm
          {
            OFFSET -9.155056 0 4.247191
            CHANNELS 3 Zrotation Yrotation Xrotation
            JOINT RightForearm
            {
              OFFSET 0 0 -25.771955
              CHANNELS 3 Zrotation Yrotation Xrotation
              JOINT RightHand
              {
                OFFSET 0 0 -25.197169
                CHANNELS 3 Zrotation Yrotation Xrotation
              }
            }
          }
        }
        JOINT Neck
        {
          OFFSET 0 0 15.101124
          CHANNELS 3 Zrotation Yrotation Xrotation
          JOINT Head
          {
            OFFSET 0 0 11.325843
            CHANNELS 3 Zrotation Yrotation Xrotation
            End Site
            {
              OFFSET 0 0 14.157303
            }
          }
        }
      }
    }
  }
}
MOTION
Frames: 14
Frame Time: 0.0
0.0  89.887642  0.0  5.521568  0.308035  -120.516008  1.301691  -4.535115  3.721447  -10.300544  20.309893  37.970767  -4.492076  -0.12969  0.859191  9.000313  -8.595471  -45.810798  13.140069  1.092124  127.651304  8.822877  10.130952  0.015022  2.032924  0.504484  4.559195  5.629396  0.990091  12.495269  5.629397  0.990091  12.495269  -25.382522  18.623055  6.796407  131.480334  41.284052  -159.942981  -19.088995  -9.095874  85.193238  50.976851  -13.265714  53.412931  -7.02318  -0.845637  27.302159  31.329595  55.519127  -34.934509  -24.569278  0.516391  -90.624688  83.842111  7.183813  -6.871652  -29.35878  -4.343959  3.921487  -21.981769  -3.456112  2.737916  
0.0  89.887642  0.0  5.565663  -0.371943  -122.632908  2.890087  -4.931422  5.8766  -10.825105  19.801426  38.31273  -4.892116  -0.320855  0.747557  12.517298  -8.660018  -50.749192  11.967533  1.868247  125.524501  9.589067  9.002798  -0.885387  1.697487  0.55312  5.02088  4.731907  1.152305  13.756446  4.731907  1.152305  13.756446  -25.448519  18.489099  6.391887  131.71003  40.960506  -159.835889  -18.869442  -9.319412  85.371953  51.335444  -13.129786  53.139608  -6.052776  -1.465558  26.863956  33.280193  56.701684  -33.717926  -24.072053  0.36868  -90.514916  83.982124  7.155125  -7.066181  -27.598403  -4.48032  3.288263  -20.664862  -3.517432  2.26751  
0.0  89.887642  0.0  5.019273  -0.253361  -124.207518  4.335277  -5.646823  7.695869  -12.227734  19.224482  38.284485  -5.37425  -0.50922  0.591186  14.31317  -8.51042  -56.096028  11.719875  3.412059  122.447381  10.221525  7.584288  -2.005942  1.170348  0.518427  5.31963  3.295236  1.152279  14.563248  3.295236  1.15228  14.563249  -25.180561  19.039132  5.995304  132.266967  40.717692  -159.934556  -18.984378  -8.897912  85.590419  52.151526  -13.155685  52.439943  -4.760168  -1.490257  26.847478  35.338021  57.686068  -32.159784  -23.993861  0.571235  -90.401281  84.593722  6.885252  -7.525811  -25.836594  -4.248998  2.836885  -19.349335  -3.313836  1.950726  
0.0  89.887642  0.0  4.341161  0.032739  -125.527249  5.88985  -6.521225  9.32595  -14.025552  18.609388  38.051988  -5.920148  -0.664625  0.432591  15.443759  -8.025153  -61.148523  11.784953  5.962364  118.280498  10.861461  5.90414  -3.110032  0.669042  0.42166  5.525621  1.913933  0.993259  15.115141  1.913933  0.993259  15.115141  -24.953931  20.136503  5.740637  132.604639  40.751011  -160.413579  -19.306018  -8.061488  85.925416  53.472701  -13.286319  51.72081  -3.850875  -0.956695  27.170731  37.533497  58.411539  -30.353158  -24.162479  1.009168  -90.323708  85.458218  6.331482  -8.26981  -24.409751  -3.74125  2.503071  -18.285852  -2.911523  1.730161  
0.0  89.887642  0.0  3.583444  0.556733  -126.811207  7.016582  -7.350223  10.884458  -15.5784  17.975287  37.843169  -6.493586  -0.942839  0.259288  15.885064  -6.951546  -65.339905  11.438327  9.510356  112.782619  11.433077  3.979628  -4.007987  0.230761  0.24305  5.592634  0.682904  0.607108  15.289468  0.682904  0.607108  15.289467  -24.935376  22.088457  6.225311  132.724054  41.248206  -161.070671  -19.609176  -7.093662  86.19974  54.978175  -13.524417  51.383494  -3.77509  0.378818  28.348327  39.668888  58.73119  -28.621595  -24.313131  1.471589  -90.336597  85.823004  5.603472  -9.219275  -23.4944  -2.817443  2.564042  -17.605813  -2.215642  1.817355  
0.0  89.887642  0.0  2.884786  1.041404  -127.94796  7.957164  -8.219681  12.421091  -16.796798  17.237809  37.462415  -7.116113  -1.174043  0.129126  15.967386  -5.761373  -68.860889  10.448725  13.847368  106.065198  11.989815  1.784888  -4.620254  -0.161747  0.005018  5.428623  -0.438441  0.049813  14.838491  -0.438441  0.049813  14.838492  -24.445606  25.032961  7.991484  132.711961  42.25303  -161.652852  -19.878571  -5.758454  86.414361  56.636251  -14.302805  51.514412  -4.006667  2.506617  30.795713  41.966426  58.760082  -26.671309  -24.070999  1.403479  -90.540261  85.827867  4.848745  -10.069441  -22.84287  -1.340002  3.202847  -17.12493  -1.126711  2.355805  
0.0  89.887642  0.0  2.242448  1.634382  -128.710419  8.289559  -8.576134  13.47852  -17.484393  16.29083  37.093835  -7.549482  -1.271722  0.136275  15.176346  -4.973132  -71.460626  8.675124  17.984548  97.415308  12.410389  -0.296523  -4.826985  -0.57419  -0.163042  5.06675  -1.595649  -0.323469  13.852533  -1.595649  -0.323469  13.852533  -23.069156  28.066454  10.84132  132.903533  43.671146  -161.892327  -20.212136  -4.514862  87.20425  57.796732  -14.676061  51.475861  -3.854966  4.477867  33.990278  44.817429  58.68131  -23.851793  -23.318494  0.507172  -90.929646  85.550244  4.243365  -11.154199  -22.137992  0.216046  4.387758  -16.606052  0.002973  3.303798  
0.0  89.887642  0.0  1.874567  2.171073  -129.099393  8.728173  -8.683898  14.076101  -17.842858  15.389002  36.873438  -7.996387  -1.379668  0.133521  13.724743  -4.553908  -73.246397  5.695039  20.324562  86.427565  12.200904  -2.204584  -4.636001  -0.831539  -0.279005  4.764606  -2.317679  -0.595768  13.031732  -2.317679  -0.595768  13.031732  -22.462426  30.475759  13.01645  133.368962  45.316276  -161.818762  -20.623277  -2.7433  87.819302  58.911342  -15.358843  51.544738  -4.198335  5.972782  36.345385  48.200119  58.419302  -20.183584  -22.223496  -0.801806  -91.45344  83.605159  4.111022  -14.394122  -21.876089  1.283588  5.310354  -16.418999  0.77371  4.034726  
0.0  89.887642  0.0  1.504383  2.8682  -128.930769  8.84989  -8.678242  13.98917  -18.063136  14.714225  36.644702  -8.31471  -1.393964  0.191714  11.513017  -5.243528  -74.419225  2.728805  19.704479  73.114546  10.640192  -3.852298  -4.197103  -0.759141  -0.465511  4.632485  -2.155431  -1.121884  12.676755  -2.155431  -1.121883  12.676756  -24.711921  32.020089  13.45839  134.070733  47.085369  -161.310971  -21.162447  -2.359492  89.191284  58.159881  -15.371095  51.56996  -6.731346  6.973708  36.89489  52.135832  57.918478  -15.631629  -21.24721  -2.170468  -92.029219  83.7631  3.336128  -14.990749  -22.954815  1.622636  5.498585  -17.231203  1.012076  4.191697  
0.0  89.887642  0.0  1.158258  3.590449  -128.408321  8.574061  -8.396567  13.528429  -18.028067  14.086039  36.36142  -8.358968  -1.398551  0.309071  9.535239  -7.333286  -72.673092  0.829876  16.09005  55.674411  6.489085  -4.899309  -3.639842  -0.793927  -0.605832  4.685582  -2.278212  -1.495209  12.827921  -2.278212  -1.495209  12.82792  -26.922711  32.916376  12.316653  135.567259  49.382202  -160.06317  -20.818483  -0.946382  89.866197  57.899227  -16.444207  51.443899  -8.583596  7.750602  35.75347  56.210795  56.940691  -10.729116  -20.683525  -3.131939  -92.598305  84.090883  2.151048  -15.34075  -23.628397  1.398772  4.996251  -17.73325  0.857336  3.8079  
0.0  89.887642  0.0  0.806042  4.643684  -127.624785  7.460833  -7.436218  12.908036  -17.511787  13.272897  36.046071  -8.346023  -1.3962  0.319725  4.431214  -8.408105  -68.474084  0.648296  8.986442  36.46808  3.190661  -5.796278  -3.822995  -1.000833  -0.708099  4.56847  -2.858532  -1.738596  12.517006  -2.858532  -1.738596  12.517007  -28.006374  34.202711  11.688673  138.287463  51.728768  -157.612893  -20.476701  0.760255  91.255497  57.32998  -16.285829  51.100174  -9.445548  8.873808  35.265974  59.862879  55.296926  -6.042579  -20.425991  -3.525782  -93.129732  84.189498  0.733464  -15.856287  -23.874267  1.449705  4.856732  -17.917598  0.899084  3.705766  
0.0  89.887642  0.0  0.592465  6.087554  -126.888943  5.808524  -6.03258  12.658856  -16.444181  12.275105  35.553863  -8.355327  -1.436865  0.255158  1.432718  -7.646897  -63.897431  0.649218  4.873902  19.151982  2.780532  -7.554993  -4.345866  0.024014  -0.514423  4.091912  -0.021451  -1.405555  11.185876  -0.021451  -1.405555  11.185876  -34.308605  33.564839  15.365352  142.070304  54.54853  -154.277105  -20.128735  2.725365  92.349652  56.848788  -16.551852  50.612065  -17.347402  6.958827  37.307692  63.173707  52.771048  -1.583159  -20.01645  -3.821837  -93.72239  83.880832  -0.687741  -16.605404  -28.318214  0.208967  7.01695  -21.244429  -0.169306  5.285921  
0.0  89.887642  0.0  0.477995  7.394368  -126.145182  4.373937  -4.943008  12.839588  -14.764911  11.274864  34.759138  -8.759599  -1.605694  0.140051  3.468607  0.45374  -64.091795  -7.059777  1.425021  8.798992  0.802815  -8.063152  -3.153262  1.096617  0.21489  4.296588  3.024755  0.390753  11.751392  3.024755  0.390753  11.751392  -40.632416  27.98807  17.534404  146.575518  57.319107  -149.843127  -19.649244  3.909306  93.514132  55.925945  -16.920022  49.375077  -24.823898  0.999652  36.148424  66.471965  49.141102  2.801246  -19.121379  -4.469489  -94.41136  83.211905  -2.127186  -17.451956  -32.290095  -3.952171  8.566962  -24.1585  -3.429411  6.234052  
0.0  89.887642  0.0  1.430015  6.372616  -125.935275  6.496836  -5.463355  13.889174  -13.846321  10.761566  33.700705  -9.712527  -1.617769  -0.130317  9.78904  15.555789  -75.079602  -23.692188  2.050888  14.549527  0.246601  -8.936367  -2.18822  1.71596  0.803178  5.035585  4.834984  1.827029  13.816612  4.834984  1.827029  13.816611  -43.582037  22.152401  15.890874  151.403251  59.430583  -144.625971  -19.607957  5.27566  94.719144  54.912105  -16.789233  48.219222  -27.358764  -3.509606  31.76655  69.776614  44.717508  6.516393  -17.807349  -5.552992  -95.189109  82.407733  -3.722178  -18.166731  -33.223003  -7.86035  8.115129  -24.778693  -6.359673  5.666366  
